<mxfile host="app.diagrams.net" modified="2023-04-23T01:13:59.023Z" agent="Mozilla/5.0 (Windows NT 10.0; Win64; x64) AppleWebKit/537.36 (KHTML, like Gecko) Chrome/112.0.0.0 Safari/537.36 Edg/112.0.1722.39" version="21.2.1" etag="o3iiaouaFY29sJzjQT9p" type="github">
  <diagram name="第 1 页" id="fNABdmpVmvpWTM05Uc5Q">
    <mxGraphModel>
      <root>
        <mxCell id="0" />
        <mxCell id="1" parent="0" />
      </root>
    </mxGraphModel>
  </diagram>
</mxfile>
